# This file uses centimeters as units for non-parametric coordinates.

mtllib lapiz.mtl
g default
v 0.500001 -2.682771 17.843821
v -0.499999 -2.682771 17.843821
v -1.000000 -2.682771 18.709846
v -0.500000 -2.682771 19.575872
v 0.500001 -2.682771 19.575872
v 1.000000 -2.682771 18.709847
v 0.500000 2.682771 17.843821
v -0.500000 2.682771 17.843821
v -1.000000 2.682771 18.709846
v -0.500001 2.682771 19.575872
v 0.499999 2.682771 19.575872
v 1.000000 2.682771 18.709847
v -0.000000 -4.503374 18.709847
v 0.500000 2.227929 17.843821
v 1.000000 2.227928 18.709847
v 0.499999 2.227929 19.575872
v -0.500000 2.227929 19.575872
v -1.000000 2.227929 18.709846
v -0.500000 2.227929 17.843821
v 0.500000 -2.406044 17.843821
v 1.000000 -2.406045 18.709847
v 0.500000 -2.406044 19.575872
v -0.500000 -2.406044 19.575872
v -1.000000 -2.406045 18.709846
v -0.499999 -2.406044 17.843821
v 0.500000 0.103966 17.843821
v 1.000000 0.103966 18.709847
v 0.500000 0.103966 19.575872
v -0.500000 0.103966 19.575872
v -1.000000 0.103966 18.709846
v -0.500000 0.103966 17.843821
vt 0.578125 0.020934
vt 0.421875 0.020934
vt 0.343750 0.156250
vt 0.421875 0.291566
vt 0.578125 0.291566
vt 0.656250 0.156250
vt 0.375000 0.312500
vt 0.416667 0.312500
vt 0.458333 0.312500
vt 0.500000 0.312500
vt 0.541667 0.312500
vt 0.583333 0.312500
vt 0.625000 0.312500
vt 0.375000 0.687500
vt 0.416667 0.687500
vt 0.458333 0.687500
vt 0.500000 0.687500
vt 0.541667 0.687500
vt 0.583333 0.687500
vt 0.625000 0.687500
vt 0.578125 0.708434
vt 0.421875 0.708434
vt 0.343750 0.843750
vt 0.421875 0.979066
vt 0.578125 0.979066
vt 0.656250 0.843750
vt 0.500000 0.156250
vt 0.625000 0.655711
vt 0.375000 0.655711
vt 0.583333 0.655711
vt 0.541667 0.655711
vt 0.500000 0.655711
vt 0.458333 0.655711
vt 0.416667 0.655711
vt 0.625000 0.331840
vt 0.375000 0.331840
vt 0.583333 0.331840
vt 0.541667 0.331840
vt 0.500000 0.331840
vt 0.458333 0.331840
vt 0.416667 0.331840
vt 0.625000 0.507266
vt 0.375000 0.507266
vt 0.583333 0.507266
vt 0.541667 0.507266
vt 0.500000 0.507266
vt 0.458333 0.507266
vt 0.416667 0.507266
vn 0.000000 0.000000 -1.000000
vn 0.000000 0.000000 -1.000000
vn 0.000000 0.000000 -1.000000
vn 0.000000 0.000000 -1.000000
vn -0.866025 0.000001 -0.500000
vn -0.866025 0.000001 -0.500000
vn -0.866025 0.000000 -0.500000
vn -0.866025 0.000000 -0.500000
vn -0.866025 0.000001 0.500000
vn -0.866025 0.000001 0.500000
vn -0.866025 0.000000 0.500000
vn -0.866025 0.000000 0.500000
vn -0.000000 -0.000000 1.000000
vn -0.000000 -0.000000 1.000000
vn -0.000000 -0.000000 1.000000
vn -0.000000 -0.000000 1.000000
vn 0.866026 0.000001 0.499999
vn 0.866026 0.000001 0.499999
vn 0.866026 0.000000 0.500000
vn 0.866025 0.000000 0.500000
vn 0.866026 -0.000000 -0.499999
vn 0.866026 -0.000000 -0.499999
vn 0.866026 0.000000 -0.500000
vn 0.866026 0.000000 -0.500000
vn -0.438243 -0.481426 -0.759060
vn 0.438244 -0.481427 -0.759059
vn -0.000001 -1.000000 0.000000
vn -0.876486 -0.481427 -0.000000
vn -0.438243 -0.481426 0.759060
vn 0.438244 -0.481427 0.759059
vn 0.876486 -0.481426 -0.000000
vn 0.000000 1.000000 -0.000000
vn 0.000000 1.000000 -0.000000
vn 0.000000 1.000000 -0.000000
vn 0.000000 1.000000 -0.000000
vn 0.000000 1.000000 -0.000000
vn 0.000000 1.000000 -0.000000
vn 0.866025 0.000000 -0.500000
vn 0.866025 0.000000 -0.500000
vn 0.866025 0.000001 -0.500000
vn 0.866025 0.000001 -0.500000
vn 0.866025 0.000000 0.500000
vn 0.866025 0.000000 0.500000
vn 0.866025 0.000001 0.500000
vn 0.866025 0.000001 0.500000
vn -0.000000 0.000000 1.000000
vn -0.000000 0.000000 1.000000
vn -0.000000 0.000000 1.000000
vn -0.000000 0.000000 1.000000
vn -0.866026 -0.000000 0.500000
vn -0.866026 -0.000000 0.500000
vn -0.866026 -0.000001 0.500000
vn -0.866026 -0.000001 0.500000
vn -0.866025 -0.000000 -0.500000
vn -0.866025 -0.000000 -0.500000
vn -0.866026 -0.000001 -0.500000
vn -0.866026 -0.000001 -0.500000
vn 0.000000 0.000000 -1.000000
vn 0.000000 0.000000 -1.000000
vn 0.000000 0.000000 -1.000000
vn 0.000000 0.000000 -1.000000
vn 0.866025 0.000000 -0.500000
vn 0.866026 0.000000 -0.500000
vn 0.866025 0.000000 0.500000
vn 0.866025 0.000000 0.500000
vn -0.000000 -0.000000 1.000000
vn -0.000000 -0.000000 1.000000
vn -0.866026 -0.000000 0.500000
vn -0.866026 -0.000000 0.500000
vn -0.866025 -0.000000 -0.500000
vn -0.866025 -0.000000 -0.500000
vn 0.000000 0.000000 -1.000000
vn 0.000000 0.000000 -1.000000
s 1
g pCylinder1
usemtl blinn12SG
f 1/7/1 2/8/2 25/41/3 20/36/4
s 2
f 2/8/5 3/9/6 24/40/7 25/41/8
s 3
f 3/9/9 4/10/10 23/39/11 24/40/12
s 4
f 4/10/13 5/11/14 22/38/15 23/39/16
s 5
f 5/11/17 6/12/18 21/37/19 22/38/20
s 6
f 6/12/21 1/13/22 20/35/23 21/37/24
s 7
usemtl blinn14SG
f 2/2/25 1/1/26 13/27/27
f 3/3/28 2/2/25 13/27/27
f 4/4/29 3/3/28 13/27/27
f 5/5/30 4/4/29 13/27/27
f 6/6/31 5/5/30 13/27/27
f 1/1/26 6/6/31 13/27/27
s off
usemtl blinn13SG
f 12/26/32 7/25/33 8/24/34 9/23/35 10/22/36 11/21/37
s 6
f 15/30/38 14/28/39 7/20/40 12/19/41
s 5
f 16/31/42 15/30/43 12/19/44 11/18/45
s 4
f 17/32/46 16/31/47 11/18/48 10/17/49
s 3
f 18/33/50 17/32/51 10/17/52 9/16/53
s 2
f 19/34/54 18/33/55 9/16/56 8/15/57
s 1
f 14/29/58 19/34/59 8/15/60 7/14/61
s 6
usemtl blinn12SG
f 21/37/24 20/35/23 26/42/62 27/44/63
s 5
f 22/38/20 21/37/19 27/44/64 28/45/65
s 4
f 23/39/16 22/38/15 28/45/66 29/46/67
s 3
f 24/40/12 23/39/11 29/46/68 30/47/69
s 2
f 25/41/8 24/40/7 30/47/70 31/48/71
s 1
f 20/36/4 25/41/3 31/48/72 26/43/73
s 6
f 27/44/63 26/42/62 14/28/39 15/30/38
s 5
f 28/45/65 27/44/64 15/30/43 16/31/42
s 4
f 29/46/67 28/45/66 16/31/47 17/32/46
s 3
f 30/47/69 29/46/68 17/32/51 18/33/50
s 2
f 31/48/71 30/47/70 18/33/55 19/34/54
s 1
f 26/43/73 31/48/72 19/34/59 14/29/58
