# This file uses centimeters as units for non-parametric coordinates.

mtllib libro.mtl
g default
v 2.571574 -1.082811 -36.464930
v -0.803650 -1.082811 -37.235304
v -3.510371 -1.082811 -35.076765
v -3.510371 -1.082811 -31.614743
v -0.803651 -1.082811 -29.456205
v 2.571574 -1.082811 -30.226579
v 4.073690 -1.082811 -33.345754
v 3.601915 0.015339 -37.756935
v -1.171374 0.015339 -38.846407
v -4.999254 0.015339 -35.793775
v -4.999255 0.015339 -30.897734
v -1.171375 0.015339 -27.845100
v 3.601914 0.015339 -28.934574
v 5.726228 0.015339 -33.345754
v 2.571574 1.113489 -36.464930
v -0.803650 1.113489 -37.235304
v -3.510371 1.113489 -35.076765
v -3.510371 1.113489 -31.614743
v -0.803651 1.113489 -29.456205
v 2.571574 1.113489 -30.226579
v 4.073690 1.113489 -33.345754
v 0.084114 -1.537680 -33.345754
v 0.084114 1.568358 -33.345754
vt 0.000000 0.250000
vt 0.142857 0.250000
vt 0.285714 0.250000
vt 0.428571 0.250000
vt 0.571429 0.250000
vt 0.714286 0.250000
vt 0.857143 0.250000
vt 1.000000 0.250000
vt 0.000000 0.500000
vt 0.142857 0.500000
vt 0.285714 0.500000
vt 0.428571 0.500000
vt 0.571429 0.500000
vt 0.714286 0.500000
vt 0.857143 0.500000
vt 1.000000 0.500000
vt 0.000000 0.750000
vt 0.142857 0.750000
vt 0.285714 0.750000
vt 0.428571 0.750000
vt 0.571429 0.750000
vt 0.714286 0.750000
vt 0.857143 0.750000
vt 1.000000 0.750000
vt 0.071429 0.000000
vt 0.214286 0.000000
vt 0.357143 0.000000
vt 0.500000 0.000000
vt 0.642857 0.000000
vt 0.785714 0.000000
vt 0.928572 0.000000
vt 0.071429 1.000000
vt 0.214286 1.000000
vt 0.357143 1.000000
vt 0.500000 1.000000
vt 0.642857 1.000000
vt 0.785714 1.000000
vt 0.928572 1.000000
vn 0.132084 -0.804777 -0.578694
vn 0.132084 -0.804777 -0.578694
vn 0.132084 -0.804777 -0.578694
vn 0.132084 -0.804777 -0.578694
vn -0.370089 -0.804778 -0.464077
vn -0.370089 -0.804778 -0.464077
vn -0.370089 -0.804778 -0.464077
vn -0.370089 -0.804778 -0.464077
vn -0.593577 -0.804777 -0.000000
vn -0.593577 -0.804777 -0.000000
vn -0.593577 -0.804777 -0.000000
vn -0.593577 -0.804777 -0.000000
vn -0.370089 -0.804778 0.464077
vn -0.370089 -0.804778 0.464077
vn -0.370089 -0.804778 0.464077
vn -0.370089 -0.804778 0.464077
vn 0.132083 -0.804778 0.578694
vn 0.132083 -0.804778 0.578694
vn 0.132083 -0.804778 0.578694
vn 0.132084 -0.804778 0.578694
vn 0.534794 -0.804778 0.257543
vn 0.534794 -0.804778 0.257543
vn 0.534794 -0.804778 0.257543
vn 0.534794 -0.804778 0.257543
vn 0.534794 -0.804778 -0.257543
vn 0.534794 -0.804778 -0.257543
vn 0.534794 -0.804778 -0.257543
vn 0.534794 -0.804778 -0.257543
vn 0.132084 0.804777 -0.578694
vn 0.132084 0.804777 -0.578694
vn 0.132084 0.804777 -0.578694
vn 0.132084 0.804777 -0.578694
vn -0.370089 0.804778 -0.464077
vn -0.370089 0.804778 -0.464077
vn -0.370089 0.804778 -0.464077
vn -0.370089 0.804778 -0.464077
vn -0.593577 0.804777 -0.000000
vn -0.593577 0.804777 -0.000000
vn -0.593577 0.804777 -0.000000
vn -0.593577 0.804777 -0.000000
vn -0.370089 0.804778 0.464077
vn -0.370089 0.804778 0.464077
vn -0.370089 0.804778 0.464077
vn -0.370089 0.804778 0.464077
vn 0.132084 0.804778 0.578694
vn 0.132083 0.804778 0.578694
vn 0.132083 0.804778 0.578694
vn 0.132083 0.804778 0.578694
vn 0.534794 0.804778 0.257543
vn 0.534794 0.804778 0.257543
vn 0.534794 0.804778 0.257543
vn 0.534794 0.804778 0.257543
vn 0.534794 0.804778 -0.257543
vn 0.534794 0.804778 -0.257543
vn 0.534794 0.804778 -0.257543
vn 0.534794 0.804778 -0.257543
vn 0.027936 -0.992088 -0.122397
vn 0.027936 -0.992088 -0.122397
vn 0.027936 -0.992088 -0.122397
vn -0.078276 -0.992088 -0.098155
vn -0.078276 -0.992088 -0.098155
vn -0.078276 -0.992088 -0.098155
vn -0.125545 -0.992088 0.000000
vn -0.125545 -0.992088 0.000000
vn -0.125545 -0.992088 0.000000
vn -0.078276 -0.992088 0.098155
vn -0.078276 -0.992088 0.098155
vn -0.078276 -0.992088 0.098155
vn 0.027936 -0.992088 0.122397
vn 0.027936 -0.992088 0.122397
vn 0.027936 -0.992088 0.122397
vn 0.113112 -0.992088 0.054472
vn 0.113112 -0.992088 0.054472
vn 0.113112 -0.992088 0.054472
vn 0.113112 -0.992088 -0.054472
vn 0.113112 -0.992088 -0.054472
vn 0.113112 -0.992088 -0.054472
vn 0.027936 0.992088 -0.122397
vn 0.027936 0.992088 -0.122397
vn 0.027936 0.992088 -0.122397
vn -0.078276 0.992088 -0.098155
vn -0.078276 0.992088 -0.098155
vn -0.078276 0.992088 -0.098155
vn -0.125545 0.992088 0.000000
vn -0.125545 0.992088 0.000000
vn -0.125545 0.992088 0.000000
vn -0.078276 0.992088 0.098155
vn -0.078276 0.992088 0.098155
vn -0.078276 0.992088 0.098155
vn 0.027936 0.992088 0.122397
vn 0.027936 0.992088 0.122397
vn 0.027936 0.992088 0.122397
vn 0.113112 0.992088 0.054472
vn 0.113112 0.992088 0.054472
vn 0.113112 0.992088 0.054472
vn 0.113112 0.992088 -0.054472
vn 0.113112 0.992088 -0.054472
vn 0.113112 0.992088 -0.054472
s off
g pSphere1 group2
usemtl blinn15SG
f 1/1/1 2/2/2 9/10/3 8/9/4
f 2/2/5 3/3/6 10/11/7 9/10/8
f 3/3/9 4/4/10 11/12/11 10/11/12
f 4/4/13 5/5/14 12/13/15 11/12/16
f 5/5/17 6/6/18 13/14/19 12/13/20
f 6/6/21 7/7/22 14/15/23 13/14/24
f 7/7/25 1/8/26 8/16/27 14/15/28
f 8/9/29 9/10/30 16/18/31 15/17/32
f 9/10/33 10/11/34 17/19/35 16/18/36
f 10/11/37 11/12/38 18/20/39 17/19/40
f 11/12/41 12/13/42 19/21/43 18/20/44
f 12/13/45 13/14/46 20/22/47 19/21/48
f 13/14/49 14/15/50 21/23/51 20/22/52
f 14/15/53 8/16/54 15/24/55 21/23/56
f 2/2/57 1/1/58 22/25/59
f 3/3/60 2/2/61 22/26/62
f 4/4/63 3/3/64 22/27/65
f 5/5/66 4/4/67 22/28/68
f 6/6/69 5/5/70 22/29/71
f 7/7/72 6/6/73 22/30/74
f 1/8/75 7/7/76 22/31/77
f 15/17/78 16/18/79 23/32/80
f 16/18/81 17/19/82 23/33/83
f 17/19/84 18/20/85 23/34/86
f 18/20/87 19/21/88 23/35/89
f 19/21/90 20/22/91 23/36/92
f 20/22/93 21/23/94 23/37/95
f 21/23/96 15/24/97 23/38/98
