# This file uses centimeters as units for non-parametric coordinates.

mtllib sandwitch.mtl
g default
v 5.954982 -0.055781 6.616573
v 6.616573 -0.055781 5.954982
v 5.954982 1.587815 6.616573
v 6.616573 1.587815 5.954982
v -6.616573 1.587815 -5.954982
v -5.954982 1.587815 -6.616573
v -6.616573 -0.055781 -5.954982
v -5.954982 -0.055781 -6.616573
v 5.954982 1.587815 -6.616573
v 6.616573 1.587815 -5.954982
v 6.616573 -0.055781 -5.954982
v 5.954982 -0.055781 -6.616573
v -6.616573 -0.055781 5.954982
v -5.954982 -0.055781 6.616573
v -5.954982 1.587815 6.616573
v -6.616573 1.587815 5.954982
vt 0.625000 0.762499
vt 0.625000 0.987501
vt 0.612501 1.000000
vt 0.387499 1.000000
vt 0.375000 0.987501
vt 0.375000 0.262499
vt 0.625000 0.262499
vt 0.375000 0.487501
vt 0.387499 0.750000
vt 0.612501 0.500000
vt 0.637499 0.250000
vt 0.862501 0.000000
vt 0.862501 0.250000
vt 0.137499 0.250000
vt 0.137499 0.000000
vt 0.362501 0.000000
vt 0.387499 0.250000
vt 0.612501 0.000000
vt 0.637499 0.000000
vt 0.612501 0.250000
vt 0.387499 0.500000
vt 0.375000 0.762499
vt 0.625000 0.487501
vt 0.612501 0.750000
vt 0.387499 0.000000
vt 0.362501 0.250000
vn 0.000000 0.000000 1.000000
vn 0.000000 0.000000 1.000000
vn 0.000000 0.000000 1.000000
vn 0.000000 0.000000 1.000000
vn 0.000000 0.000000 -1.000000
vn 0.000000 0.000000 -1.000000
vn 0.000000 0.000000 -1.000000
vn 0.000000 0.000000 -1.000000
vn 1.000000 0.000000 0.000000
vn 1.000000 0.000000 0.000000
vn 1.000000 0.000000 0.000000
vn 1.000000 0.000000 0.000000
vn -1.000000 0.000000 0.000000
vn -1.000000 0.000000 0.000000
vn -1.000000 0.000000 0.000000
vn -1.000000 0.000000 0.000000
vn 0.000000 -1.000000 0.000000
vn 0.000000 -1.000000 0.000000
vn 0.000000 -1.000000 0.000000
vn 0.000000 -1.000000 0.000000
vn 0.000000 -1.000000 0.000000
vn 0.000000 -1.000000 0.000000
vn 0.000000 -1.000000 0.000000
vn 0.000000 -1.000000 0.000000
vn 0.000000 1.000000 -0.000000
vn 0.000000 1.000000 -0.000000
vn 0.000000 1.000000 -0.000000
vn 0.000000 1.000000 -0.000000
vn 0.000000 1.000000 -0.000000
vn 0.000000 1.000000 -0.000000
vn 0.000000 1.000000 -0.000000
vn 0.000000 1.000000 -0.000000
vn 0.707107 0.000000 0.707107
vn 0.707107 0.000000 0.707107
vn 0.707107 0.000000 0.707107
vn 0.707107 0.000000 0.707107
vn -0.707107 0.000000 -0.707107
vn -0.707107 0.000000 -0.707107
vn -0.707107 0.000000 -0.707107
vn -0.707107 0.000000 -0.707107
vn 0.707107 0.000000 -0.707107
vn 0.707107 0.000000 -0.707107
vn 0.707107 0.000000 -0.707107
vn 0.707107 0.000000 -0.707107
vn -0.707107 0.000000 0.707107
vn -0.707107 0.000000 0.707107
vn -0.707107 0.000000 0.707107
vn -0.707107 0.000000 0.707107
s off
g pCube1 group1
usemtl blinn8SG
f 15/17/1 14/25/2 1/18/3 3/20/4
f 8/9/5 6/21/6 9/10/7 12/24/8
f 4/11/9 2/19/10 11/12/11 10/13/12
f 5/14/13 7/15/14 13/16/15 16/26/16
usemtl blinn1SG
f 7/22/17 8/9/18 12/24/19 11/1/20 2/2/21 1/3/22 14/4/23 13/5/24
f 16/6/25 15/17/26 3/20/27 4/7/28 10/23/29 9/10/30 6/21/31 5/8/32
usemtl blinn8SG
f 1/18/33 2/19/34 4/11/35 3/20/36
f 5/8/37 6/21/38 8/9/39 7/22/40
f 9/10/41 10/23/42 11/1/43 12/24/44
f 13/16/45 14/25/46 15/17/47 16/26/48
g default
v -7.221283 2.232432 7.221283
v 7.221283 2.232432 7.221283
v -7.221283 2.432504 7.221283
v 7.221283 2.432504 7.221283
v -7.221283 2.432504 -7.221283
v 7.221283 2.432504 -7.221283
v -7.221283 2.232432 -7.221283
v 7.221283 2.232432 -7.221283
v 3.388659 2.646843 7.221283
v 3.388659 2.846915 7.221283
v 3.388659 1.992243 -7.221283
v 3.388659 1.792171 -7.221283
v 0.791812 2.232432 7.221283
v 0.791812 2.432504 7.221283
v 0.791812 1.914745 -7.221283
v 0.791812 1.714672 -7.221283
v -1.537058 1.869958 7.221283
v -1.537058 2.070031 7.221283
v -1.537058 2.887537 -7.221283
v -1.537058 2.687465 -7.221283
v -4.104685 2.232432 7.221283
v -4.104685 2.432504 7.221283
v -4.104685 1.934628 -7.221283
v -4.104685 1.734556 -7.221283
v -7.221283 2.162889 -4.031483
v -7.221283 1.962816 -4.031483
v -4.104685 2.232432 -4.031483
v -1.537058 2.627249 -4.031483
v 0.791812 1.768212 -4.031483
v 3.388659 1.993961 -4.031483
v 7.221283 1.800299 -4.031483
v 7.221283 2.000372 -4.031483
v 3.388659 2.194034 -4.031483
v 0.791812 1.968284 -4.031483
v -1.537058 2.827320 -4.031483
v -4.104685 2.432504 -4.031483
v -7.221283 2.886419 3.184815
v -7.221283 2.686349 3.184815
v -4.104685 1.975089 3.184815
v -1.537058 2.232432 3.184815
v 0.791812 2.232432 3.184815
v 3.388659 2.596161 3.184815
v 7.221283 2.932257 3.184815
v 7.221283 3.132329 3.184815
v 3.388659 2.796231 3.184815
v 0.791812 2.432504 3.184815
v -1.537058 2.432504 3.184815
v -4.104685 2.175161 3.184815
v -7.221283 2.291604 -0.752282
v -7.221283 2.491673 -0.752282
v -4.104685 2.315563 -0.752282
v -1.537058 2.647910 -0.752282
v 0.791812 2.432504 -0.752282
v 3.388659 2.432504 -0.752282
v 7.221283 1.813343 -0.752282
v 7.221283 1.613275 -0.752282
v 3.388659 2.232432 -0.752282
v 0.791812 2.232432 -0.752282
v -1.537058 2.447837 -0.752282
v -4.104685 2.115490 -0.752282
vt 0.375000 0.000000
vt 0.625000 0.000000
vt 0.375000 0.250000
vt 0.625000 0.250000
vt 0.375000 0.500000
vt 0.625000 0.500000
vt 0.375000 0.750000
vt 0.625000 0.750000
vt 0.375000 1.000000
vt 0.625000 1.000000
vt 0.875000 0.000000
vt 0.875000 0.250000
vt 0.125000 0.000000
vt 0.125000 0.250000
vt 0.558658 0.000000
vt 0.558658 1.000000
vt 0.558658 0.250000
vt 0.558658 0.500000
vt 0.558658 0.750000
vt 0.513706 0.000000
vt 0.513706 1.000000
vt 0.513706 0.250000
vt 0.513706 0.500000
vt 0.513706 0.750000
vt 0.473394 0.000000
vt 0.473394 1.000000
vt 0.473394 0.250000
vt 0.473394 0.500000
vt 0.473394 0.750000
vt 0.428948 0.000000
vt 0.428948 1.000000
vt 0.428948 0.250000
vt 0.428948 0.500000
vt 0.428948 0.750000
vt 0.180215 0.250000
vt 0.375000 0.444785
vt 0.180215 0.000000
vt 0.375000 0.805215
vt 0.428948 0.805215
vt 0.473394 0.805215
vt 0.513706 0.805215
vt 0.558658 0.805215
vt 0.625000 0.805215
vt 0.819785 0.000000
vt 0.625000 0.444785
vt 0.819785 0.250000
vt 0.558658 0.444785
vt 0.513706 0.444785
vt 0.473394 0.444785
vt 0.428948 0.444785
vt 0.305129 0.250000
vt 0.375000 0.319871
vt 0.305129 0.000000
vt 0.375000 0.930129
vt 0.428948 0.930129
vt 0.473394 0.930129
vt 0.513706 0.930129
vt 0.558658 0.930129
vt 0.625000 0.930129
vt 0.694871 0.000000
vt 0.625000 0.319871
vt 0.694871 0.250000
vt 0.558658 0.319871
vt 0.513706 0.319871
vt 0.473394 0.319871
vt 0.428948 0.319871
vt 0.236978 0.000000
vt 0.375000 0.861978
vt 0.236978 0.250000
vt 0.375000 0.388022
vt 0.428948 0.388022
vt 0.473394 0.388022
vt 0.513706 0.388022
vt 0.558658 0.388022
vt 0.625000 0.388022
vt 0.763022 0.250000
vt 0.625000 0.861978
vt 0.763022 0.000000
vt 0.558658 0.861978
vt 0.513706 0.861978
vt 0.473394 0.861978
vt 0.428948 0.861978
vn 0.000000 0.000000 1.000000
vn -0.000000 0.000000 1.000000
vn -0.000000 0.000000 1.000000
vn 0.000000 0.000000 1.000000
vn 0.113339 0.993262 0.024186
vn 0.103253 0.994390 0.022977
vn 0.040705 0.999126 0.009526
vn 0.127661 0.991806 -0.004900
vn 0.000000 0.000000 -1.000000
vn 0.000000 0.000000 -1.000000
vn 0.000000 0.000000 -1.000000
vn 0.000000 0.000000 -1.000000
vn -0.127662 -0.991806 0.004900
vn -0.040706 -0.999126 -0.009526
vn -0.103253 -0.994390 -0.022978
vn -0.113340 -0.993262 -0.024186
vn 1.000000 0.000000 0.000000
vn 1.000000 0.000000 0.000000
vn 1.000000 0.000000 0.000000
vn 1.000000 0.000000 0.000000
vn -1.000000 0.000000 0.000000
vn -1.000000 0.000000 0.000000
vn -1.000000 0.000000 0.000000
vn -1.000000 0.000000 0.000000
vn 0.000000 0.000000 1.000000
vn 0.000000 0.000000 1.000000
vn 0.000000 0.000000 1.000000
vn 0.000000 0.000000 1.000000
vn 0.022821 0.998012 -0.058751
vn -0.023668 0.994397 -0.103023
vn -0.054107 0.997503 0.045381
vn 0.010183 0.996731 0.080147
vn -0.000000 0.000000 -1.000000
vn -0.000000 0.000000 -1.000000
vn -0.000000 0.000000 -1.000000
vn -0.000000 0.000000 -1.000000
vn 0.054107 -0.997503 -0.045381
vn 0.023668 -0.994397 0.103022
vn -0.022821 -0.998012 0.058751
vn -0.010184 -0.996731 -0.080147
vn 0.000000 0.000000 1.000000
vn 0.000000 0.000000 1.000000
vn -0.065902 0.997820 0.003425
vn -0.114995 0.993207 0.017797
vn 0.000000 0.000000 -1.000000
vn 0.000000 0.000000 -1.000000
vn 0.114995 -0.993207 -0.017797
vn 0.065902 -0.997820 -0.003425
vn -0.000000 0.000000 1.000000
vn -0.000000 0.000000 1.000000
vn -0.062261 0.997274 0.039605
vn -0.025620 0.999281 0.027957
vn 0.000000 0.000000 -1.000000
vn 0.000000 0.000000 -1.000000
vn 0.025620 -0.999281 -0.027956
vn 0.062261 -0.997274 -0.039605
vn -1.000000 0.000000 0.000000
vn -1.000000 0.000000 0.000000
vn -1.000000 0.000000 0.000000
vn -1.000000 0.000000 0.000000
vn -0.036572 -0.998692 0.035733
vn 0.079710 -0.995644 0.048374
vn 0.178464 -0.983826 0.015367
vn -0.011460 -0.999354 0.034063
vn -0.047849 -0.998354 0.031612
vn -0.049291 -0.998156 0.035416
vn -0.147870 -0.988714 0.024075
vn -0.137903 -0.990205 0.021835
vn -0.036321 -0.998417 0.042942
vn 0.055125 -0.998004 0.030808
vn -0.093086 -0.995651 0.003838
vn 0.032133 -0.998833 -0.036064
vn 1.000000 0.000000 0.000000
vn 1.000000 0.000000 0.000000
vn 1.000000 0.000000 0.000000
vn 1.000000 0.000000 0.000000
vn -0.055125 0.998004 -0.030808
vn 0.036321 0.998417 -0.042942
vn 0.093086 0.995651 -0.003837
vn -0.032133 0.998833 0.036064
vn 0.137903 0.990205 -0.021835
vn 0.147869 0.988714 -0.024075
vn 0.049291 0.998156 -0.035416
vn 0.047849 0.998354 -0.031612
vn -0.079709 0.995644 -0.048374
vn -0.178464 0.983827 -0.015367
vn 0.011460 0.999354 -0.034063
vn 0.036572 0.998692 -0.035733
vn -1.000000 0.000000 0.000000
vn -1.000000 0.000000 0.000000
vn -0.014476 -0.999891 -0.002757
vn -0.129500 -0.991063 0.032012
vn -0.027484 -0.999600 -0.006657
vn -0.062725 -0.997169 0.041462
vn -0.002883 -0.988464 0.151426
vn -0.084045 -0.993902 0.071383
vn 1.000000 0.000000 0.000000
vn 1.000000 0.000000 0.000000
vn 0.002883 0.988464 -0.151426
vn 0.084045 0.993902 -0.071383
vn 0.062725 0.997169 -0.041462
vn 0.027484 0.999600 0.006657
vn 0.014475 0.999891 0.002757
vn 0.129499 0.991063 -0.032012
s 1
g group1 pCube2
usemtl blinn10SG
f 17/27/49 37/56/50 38/58/51 19/29/52
s 2
f 19/29/53 38/58/54 64/92/55 53/78/56
s 3
f 21/31/57 39/59/58 40/60/59 23/33/60
s 4
f 54/80/61 55/81/62 37/57/63 17/35/64
s 5
f 18/28/65 59/86/66 60/88/67 20/30/68
s 6
f 53/77/69 54/79/70 17/27/71 19/29/72
s 1
f 26/43/73 25/41/74 18/28/75 20/30/76
s 2
f 60/87/77 61/89/78 26/43/79 20/30/80
s 3
f 28/45/81 27/44/82 22/32/83 24/34/84
s 4
f 25/42/85 58/84/86 59/85/87 18/36/88
s 1
f 30/48/89 29/46/90 25/41/74 26/43/73
s 2
f 61/89/78 62/90/91 30/48/92 26/43/79
s 3
f 32/50/93 31/49/94 27/44/82 28/45/81
s 4
f 29/47/95 57/83/96 58/84/86 25/42/85
s 1
f 34/53/97 33/51/98 29/46/90 30/48/89
s 2
f 62/90/91 63/91/99 34/53/100 30/48/92
s 3
f 36/55/101 35/54/102 31/49/94 32/50/93
s 4
f 33/52/103 56/82/104 57/83/96 29/47/95
s 1
f 38/58/51 37/56/50 33/51/98 34/53/97
s 2
f 63/91/99 64/92/55 38/58/54 34/53/100
s 3
f 40/60/59 39/59/58 35/54/102 36/55/101
s 4
f 37/57/63 55/81/62 56/82/104 33/52/103
s 6
f 23/39/105 42/63/106 41/61/107 21/40/108
s 4
f 23/33/109 40/60/110 43/65/111 42/64/112
f 44/66/113 43/65/111 40/60/110 36/55/114
f 45/67/115 44/66/113 36/55/114 32/50/116
f 46/68/117 45/67/115 32/50/116 28/45/118
f 47/69/119 46/68/117 28/45/118 24/34/120
s 5
f 48/72/121 47/70/122 24/37/123 22/38/124
s 2
f 27/44/125 49/73/126 48/71/127 22/32/128
f 31/49/129 50/74/130 49/73/126 27/44/125
f 35/54/131 51/75/132 50/74/130 31/49/129
f 39/59/133 52/76/134 51/75/132 35/54/131
f 41/62/135 52/76/134 39/59/133 21/31/136
s 6
f 41/61/107 42/63/106 65/93/137 66/95/138
s 4
f 42/64/112 43/65/111 76/108/139 65/94/140
f 75/107/141 76/108/139 43/65/111 44/66/113
f 74/106/142 75/107/141 44/66/113 45/67/115
f 73/105/143 74/106/142 45/67/115 46/68/117
f 72/103/144 73/105/143 46/68/117 47/69/119
s 5
f 71/102/145 72/104/146 47/70/122 48/72/121
s 2
f 48/71/127 49/73/126 70/100/147 71/101/148
f 49/73/126 50/74/130 69/99/149 70/100/147
f 50/74/130 51/75/132 68/98/150 69/99/149
f 51/75/132 52/76/134 67/97/151 68/98/150
f 66/96/152 67/97/151 52/76/134 41/62/135
s 6
f 66/95/138 65/93/137 54/79/70 53/77/69
s 2
f 53/78/56 64/92/55 67/97/151 66/96/152
f 68/98/150 67/97/151 64/92/55 63/91/99
f 69/99/149 68/98/150 63/91/99 62/90/91
f 70/100/147 69/99/149 62/90/91 61/89/78
f 71/101/148 70/100/147 61/89/78 60/87/77
s 5
f 60/88/67 59/86/66 72/104/146 71/102/145
s 4
f 59/85/87 58/84/86 73/105/143 72/103/144
f 58/84/86 57/83/96 74/106/142 73/105/143
f 57/83/96 56/82/104 75/107/141 74/106/142
f 56/82/104 55/81/62 76/108/139 75/107/141
f 65/94/140 76/108/139 55/81/62 54/80/61
g default
v 5.954982 2.614479 6.616573
v 6.616573 2.614479 5.954982
v 5.954982 4.258075 6.616573
v 6.616573 4.258075 5.954982
v -6.616573 4.258075 -5.954982
v -5.954982 4.258075 -6.616573
v -6.616573 2.614479 -5.954982
v -5.954982 2.614479 -6.616573
v 5.954982 4.258075 -6.616573
v 6.616573 4.258075 -5.954982
v 6.616573 2.614479 -5.954982
v 5.954982 2.614479 -6.616573
v -6.616573 2.614479 5.954982
v -5.954982 2.614479 6.616573
v -5.954982 4.258075 6.616573
v -6.616573 4.258075 5.954982
vt 0.625000 0.762499
vt 0.625000 0.987501
vt 0.612501 1.000000
vt 0.387499 1.000000
vt 0.375000 0.987501
vt 0.375000 0.262499
vt 0.625000 0.262499
vt 0.375000 0.487501
vt 0.387499 0.750000
vt 0.612501 0.500000
vt 0.637499 0.250000
vt 0.862501 0.000000
vt 0.862501 0.250000
vt 0.137499 0.250000
vt 0.137499 0.000000
vt 0.362501 0.000000
vt 0.387499 0.250000
vt 0.612501 0.000000
vt 0.637499 0.000000
vt 0.612501 0.250000
vt 0.387499 0.500000
vt 0.375000 0.762499
vt 0.625000 0.487501
vt 0.612501 0.750000
vt 0.387499 0.000000
vt 0.362501 0.250000
vn 0.000000 0.000000 1.000000
vn 0.000000 0.000000 1.000000
vn 0.000000 0.000000 1.000000
vn 0.000000 0.000000 1.000000
vn 0.000000 0.000000 -1.000000
vn 0.000000 0.000000 -1.000000
vn 0.000000 0.000000 -1.000000
vn 0.000000 0.000000 -1.000000
vn 1.000000 0.000000 0.000000
vn 1.000000 0.000000 0.000000
vn 1.000000 0.000000 0.000000
vn 1.000000 0.000000 0.000000
vn -1.000000 0.000000 0.000000
vn -1.000000 0.000000 0.000000
vn -1.000000 0.000000 0.000000
vn -1.000000 0.000000 0.000000
vn 0.000000 -1.000000 -0.000000
vn 0.000000 -1.000000 -0.000000
vn 0.000000 -1.000000 -0.000000
vn 0.000000 -1.000000 -0.000000
vn 0.000000 -1.000000 -0.000000
vn 0.000000 -1.000000 -0.000000
vn 0.000000 -1.000000 -0.000000
vn 0.000000 -1.000000 -0.000000
vn 0.000000 1.000000 -0.000000
vn 0.000000 1.000000 -0.000000
vn 0.000000 1.000000 -0.000000
vn 0.000000 1.000000 -0.000000
vn 0.000000 1.000000 -0.000000
vn 0.000000 1.000000 -0.000000
vn 0.000000 1.000000 -0.000000
vn 0.000000 1.000000 -0.000000
vn 0.707107 0.000000 0.707107
vn 0.707107 0.000000 0.707107
vn 0.707107 0.000000 0.707107
vn 0.707107 0.000000 0.707107
vn -0.707107 0.000000 -0.707107
vn -0.707107 0.000000 -0.707107
vn -0.707107 0.000000 -0.707107
vn -0.707107 0.000000 -0.707107
vn 0.707107 0.000000 -0.707107
vn 0.707107 0.000000 -0.707107
vn 0.707107 0.000000 -0.707107
vn 0.707107 0.000000 -0.707107
vn -0.707107 0.000000 0.707107
vn -0.707107 0.000000 0.707107
vn -0.707107 0.000000 0.707107
vn -0.707107 0.000000 0.707107
s off
g group1 pCube3
usemtl blinn9SG
f 91/125/153 90/133/154 77/126/155 79/128/156
f 84/117/157 82/129/158 85/118/159 88/132/160
f 80/119/161 78/127/162 87/120/163 86/121/164
f 81/122/165 83/123/166 89/124/167 92/134/168
usemtl blinn1SG
f 83/130/169 84/117/170 88/132/171 87/109/172 78/110/173 77/111/174 90/112/175 89/113/176
f 92/114/177 91/125/178 79/128/179 80/115/180 86/131/181 85/118/182 82/129/183 81/116/184
usemtl blinn9SG
f 77/126/185 78/127/186 80/119/187 79/128/188
f 81/116/189 82/129/190 84/117/191 83/130/192
f 85/118/193 86/131/194 87/109/195 88/132/196
f 89/124/197 90/133/198 91/125/199 92/134/200
g default
v -6.259117 1.671879 6.259117
v 6.259117 1.671879 6.259117
v -6.259117 1.845293 6.259117
v 6.259117 1.845293 6.259117
v -6.259117 1.845293 -6.259117
v 6.259117 1.845293 -6.259117
v -6.259117 1.671879 -6.259117
v 6.259117 1.671879 -6.259117
vt 0.375000 0.000000
vt 0.625000 0.000000
vt 0.375000 0.250000
vt 0.625000 0.250000
vt 0.375000 0.500000
vt 0.625000 0.500000
vt 0.375000 0.750000
vt 0.625000 0.750000
vt 0.375000 1.000000
vt 0.625000 1.000000
vt 0.875000 0.000000
vt 0.875000 0.250000
vt 0.125000 0.000000
vt 0.125000 0.250000
vn 0.000000 0.000000 1.000000
vn 0.000000 0.000000 1.000000
vn 0.000000 0.000000 1.000000
vn 0.000000 0.000000 1.000000
vn 0.000000 1.000000 0.000000
vn 0.000000 1.000000 0.000000
vn 0.000000 1.000000 0.000000
vn 0.000000 1.000000 0.000000
vn 0.000000 0.000000 -1.000000
vn 0.000000 0.000000 -1.000000
vn 0.000000 0.000000 -1.000000
vn 0.000000 0.000000 -1.000000
vn 0.000000 -1.000000 0.000000
vn 0.000000 -1.000000 0.000000
vn 0.000000 -1.000000 0.000000
vn 0.000000 -1.000000 0.000000
vn 1.000000 0.000000 0.000000
vn 1.000000 0.000000 0.000000
vn 1.000000 0.000000 0.000000
vn 1.000000 0.000000 0.000000
vn -1.000000 0.000000 0.000000
vn -1.000000 0.000000 0.000000
vn -1.000000 0.000000 0.000000
vn -1.000000 0.000000 0.000000
s off
g group1 pCube4
usemtl blinn11SG
f 93/135/201 94/136/202 96/138/203 95/137/204
f 95/137/205 96/138/206 98/140/207 97/139/208
f 97/139/209 98/140/210 100/142/211 99/141/212
f 99/141/213 100/142/214 94/144/215 93/143/216
f 94/136/217 100/145/218 98/146/219 96/138/220
f 99/147/221 93/135/222 95/137/223 97/148/224
